<svg width="14" height="11" viewBox="0 0 14 11" fill="none" xmlns="http://www.w3.org/2000/svg">
<path d="M13.6894 4.5625C13.6894 4.25781 13.4316 4 13.1269 4H11.5331L9.02533 0.578125C8.79096 0.226562 8.32221 0.15625 7.99408 0.414062C7.64252 0.648438 7.57221 1.11719 7.83002 1.44531L9.68158 4H4.17377L6.02533 1.44531C6.28314 1.11719 6.21283 0.648438 5.86127 0.414062C5.53314 0.15625 5.06439 0.226562 4.83002 0.578125L2.32221 4H0.751894C0.423769 4 0.189394 4.25781 0.189394 4.5625V4.9375C0.189394 5.26562 0.423769 5.5 0.751894 5.5H0.939394L1.54877 9.78906C1.61908 10.3516 2.08783 10.75 2.65033 10.75H11.205C11.7675 10.75 12.2363 10.3516 12.3066 9.78906L12.9394 5.5H13.1269C13.4316 5.5 13.6894 5.26562 13.6894 4.9375V4.5625ZM7.50189 8.6875C7.50189 9.01562 7.24408 9.25 6.93939 9.25C6.61127 9.25 6.37689 9.01562 6.37689 8.6875V6.0625C6.37689 5.75781 6.61127 5.5 6.93939 5.5C7.24408 5.5 7.50189 5.75781 7.50189 6.0625V8.6875ZM10.1269 8.6875C10.1269 9.01562 9.86908 9.25 9.56439 9.25C9.23627 9.25 9.00189 9.01562 9.00189 8.6875V6.0625C9.00189 5.75781 9.23627 5.5 9.56439 5.5C9.86908 5.5 10.1269 5.75781 10.1269 6.0625V8.6875ZM4.87689 8.6875C4.87689 9.01562 4.61908 9.25 4.31439 9.25C3.98627 9.25 3.75189 9.01562 3.75189 8.6875V6.0625C3.75189 5.75781 3.98627 5.5 4.31439 5.5C4.61908 5.5 4.87689 5.75781 4.87689 6.0625V8.6875Z" fill="#6F6F6F"/>
</svg>
