<svg width="30" height="30" viewBox="0 0 30 30" fill="none" xmlns="http://www.w3.org/2000/svg">
<path d="M0.5 8C0.5 3.85786 3.85786 0.5 8 0.5H22C26.1421 0.5 29.5 3.85786 29.5 8V22C29.5 26.1421 26.1421 29.5 22 29.5H8C3.85786 29.5 0.5 26.1421 0.5 22V8Z" stroke="#6F6F6F"/>
<path d="M21.6894 13.5625C21.6894 13.2578 21.4316 13 21.1269 13H19.5331L17.0253 9.57812C16.791 9.22656 16.3222 9.15625 15.9941 9.41406C15.6425 9.64844 15.5722 10.1172 15.83 10.4453L17.6816 13H12.1738L14.0253 10.4453C14.2831 10.1172 14.2128 9.64844 13.8613 9.41406C13.5331 9.15625 13.0644 9.22656 12.83 9.57812L10.3222 13H8.75189C8.42377 13 8.18939 13.2578 8.18939 13.5625V13.9375C8.18939 14.2656 8.42377 14.5 8.75189 14.5H8.93939L9.54877 18.7891C9.61908 19.3516 10.0878 19.75 10.6503 19.75H19.205C19.7675 19.75 20.2363 19.3516 20.3066 18.7891L20.9394 14.5H21.1269C21.4316 14.5 21.6894 14.2656 21.6894 13.9375V13.5625ZM15.5019 17.6875C15.5019 18.0156 15.2441 18.25 14.9394 18.25C14.6113 18.25 14.3769 18.0156 14.3769 17.6875V15.0625C14.3769 14.7578 14.6113 14.5 14.9394 14.5C15.2441 14.5 15.5019 14.7578 15.5019 15.0625V17.6875ZM18.1269 17.6875C18.1269 18.0156 17.8691 18.25 17.5644 18.25C17.2363 18.25 17.0019 18.0156 17.0019 17.6875V15.0625C17.0019 14.7578 17.2363 14.5 17.5644 14.5C17.8691 14.5 18.1269 14.7578 18.1269 15.0625V17.6875ZM12.8769 17.6875C12.8769 18.0156 12.6191 18.25 12.3144 18.25C11.9863 18.25 11.7519 18.0156 11.7519 17.6875V15.0625C11.7519 14.7578 11.9863 14.5 12.3144 14.5C12.6191 14.5 12.8769 14.7578 12.8769 15.0625V17.6875Z" fill="#6F6F6F"/>
</svg>
