<svg width="12" height="13" viewBox="0 0 12 13" fill="none" xmlns="http://www.w3.org/2000/svg">
<path d="M5.93939 6.5C7.58002 6.5 8.93939 5.16406 8.93939 3.5C8.93939 1.85938 7.58002 0.5 5.93939 0.5C4.27533 0.5 2.93939 1.85938 2.93939 3.5C2.93939 5.16406 4.27533 6.5 5.93939 6.5ZM8.02533 7.25H7.62689C7.11127 7.50781 6.54877 7.625 5.93939 7.625C5.33002 7.625 4.74408 7.50781 4.22846 7.25H3.83002C2.09564 7.25 0.689394 8.67969 0.689394 10.4141V11.375C0.689394 12.0078 1.18158 12.5 1.81439 12.5H10.0644C10.6738 12.5 11.1894 12.0078 11.1894 11.375V10.4141C11.1894 8.67969 9.75971 7.25 8.02533 7.25Z" fill="#6F6F6F"/>
</svg>
