<svg width="30" height="30" viewBox="0 0 30 30" fill="none" xmlns="http://www.w3.org/2000/svg">
<path d="M0.5 8C0.5 3.85786 3.85786 0.5 8 0.5H22C26.1421 0.5 29.5 3.85786 29.5 8V22C29.5 26.1421 26.1421 29.5 22 29.5H8C3.85786 29.5 0.5 26.1421 0.5 22V8Z" stroke="#6F6F6F"/>
<path d="M14.9394 14.5C16.58 14.5 17.9394 13.1641 17.9394 11.5C17.9394 9.85938 16.58 8.5 14.9394 8.5C13.2753 8.5 11.9394 9.85938 11.9394 11.5C11.9394 13.1641 13.2753 14.5 14.9394 14.5ZM17.0253 15.25H16.6269C16.1113 15.5078 15.5488 15.625 14.9394 15.625C14.33 15.625 13.7441 15.5078 13.2285 15.25H12.83C11.0956 15.25 9.68939 16.6797 9.68939 18.4141V19.375C9.68939 20.0078 10.1816 20.5 10.8144 20.5H19.0644C19.6738 20.5 20.1894 20.0078 20.1894 19.375V18.4141C20.1894 16.6797 18.7597 15.25 17.0253 15.25Z" fill="#6F6F6F"/>
</svg>
